<svg width="535" height="389" viewBox="0 0 535 389" fill="none" xmlns="http://www.w3.org/2000/svg">
<g clip-path="url(#clip0_1425_1352)">
<mask id="mask0_1425_1352" style="mask-type:luminance" maskUnits="userSpaceOnUse" x="0" y="0" width="535" height="389">
<path d="M535 0H0V389H535V0Z" fill="white"/>
</mask>
<g mask="url(#mask0_1425_1352)">
<path d="M311.637 68.5762C321.664 68.5762 329.792 60.45 329.792 50.426C329.792 40.4019 321.664 32.2758 311.637 32.2758C301.61 32.2758 293.481 40.4019 293.481 50.426C293.481 60.45 301.61 68.5762 311.637 68.5762Z" fill="#E5E5E5"/>
<path d="M452.473 337.946C479.458 317.397 492.347 282.868 484.278 249.928C484.078 249.11 483.866 248.293 483.643 247.479C478.294 227.926 465.059 209.344 445.77 203.096C429.574 197.85 411.895 201.884 394.998 199.798C361.829 195.703 336.114 168.873 318.02 140.782C299.926 112.69 286.021 81.2456 261.978 58.0379C222.347 19.7839 157.699 11.5478 108.562 36.4483C59.4256 61.3488 28.1262 116.593 29.461 171.65C30.7959 226.708 63.4901 279.346 110.97 307.274C128.412 317.534 148.586 324.802 168.663 322.259C186.083 320.052 201.912 310.694 219.251 307.916C246.511 303.548 273.597 315.87 297.175 330.229C320.753 344.587 343.527 361.606 370.32 368.263C396.336 374.727 428.567 356.148 452.473 337.946Z" fill="#E5E5E5"/>
<path d="M413.701 37.6045C413.109 37.2103 412.511 36.8364 411.919 36.4557C394.819 25.5223 376.491 16.64 357.312 9.99252L352.865 71.3208H324.674V1.04004C322.9 0.672965 321.112 0.326287 319.323 0V71.3208H285.822C267.379 71.3208 249.692 63.9965 236.651 50.9591C223.61 37.9217 216.283 20.2391 216.283 1.80145C214.488 2.18892 212.707 2.60351 210.925 3.04536V71.3208H183.639L179.403 12.8407C159.694 20.3972 140.983 30.3343 123.687 42.4309C123.388 42.6348 123.089 42.8455 122.797 43.0494C121.294 44.1031 119.812 45.1771 118.336 46.2647V280.233H198.754L197.333 260.553L189.514 152.505H346.984L339.164 260.553L337.743 280.233H417.27V39.9701C416.087 39.168 414.897 38.3795 413.701 37.6045ZM210.925 134.661H188.222L184.026 76.6773H210.925V134.661ZM319.323 134.661H281.192V133.512C281.192 132.96 281.083 132.413 280.871 131.903C280.66 131.393 280.349 130.93 279.958 130.539C279.568 130.149 279.103 129.84 278.593 129.629C278.082 129.419 277.535 129.311 276.983 129.311H260.405C259.854 129.311 259.307 129.42 258.797 129.631C258.287 129.842 257.824 130.151 257.434 130.541C257.043 130.932 256.734 131.395 256.523 131.904C256.312 132.414 256.203 132.961 256.203 133.512V134.661H216.283V76.6773H319.323V134.661ZM324.675 134.661V76.6773H352.478L348.282 134.661H324.675Z" fill="url(#paint0_linear_1425_1352)"/>
<path d="M0 295.215C5.90692 302.212 12.2959 308.788 19.1203 314.894L515.88 315.574C522.704 309.468 529.093 302.892 535 295.895L0 295.215Z" fill="#4A4A4A"/>
<path d="M336.869 232.201V290.46C336.869 291.202 337.165 291.914 337.69 292.439C338.215 292.964 338.927 293.259 339.669 293.26H426.026C426.769 293.259 427.481 292.964 428.006 292.439C428.531 291.914 428.827 291.202 428.827 290.46V232.201C428.825 231.46 428.53 230.749 428.005 230.224C427.48 229.7 426.768 229.405 426.026 229.404H339.669C338.927 229.405 338.216 229.7 337.691 230.224C337.166 230.749 336.87 231.46 336.869 232.201Z" fill="#272727"/>
<path d="M338.895 232.926V289.741C338.895 290.138 339.053 290.518 339.334 290.798C339.614 291.079 339.995 291.237 340.391 291.238H425.308C425.704 291.237 426.085 291.079 426.365 290.798C426.646 290.518 426.804 290.138 426.804 289.741V232.926C426.804 232.529 426.647 232.148 426.366 231.867C426.086 231.586 425.705 231.427 425.308 231.427H340.391C339.994 231.428 339.613 231.586 339.333 231.867C339.052 232.148 338.895 232.529 338.895 232.926Z" fill="#B00020"/>
<path d="M335.063 301.822C335.221 302.02 335.422 302.18 335.651 302.289C335.88 302.399 336.13 302.455 336.384 302.454H428.852C429.105 302.454 429.355 302.397 429.583 302.288C429.811 302.179 430.012 302.021 430.171 301.824C430.331 301.628 430.444 301.399 430.504 301.153C430.563 300.907 430.567 300.651 430.515 300.404L429.08 293.588C429.02 293.31 428.892 293.051 428.707 292.835C428.522 292.619 428.286 292.453 428.02 292.352C427.828 292.277 427.623 292.238 427.417 292.238H337.814C337.607 292.238 337.402 292.277 337.21 292.352C336.944 292.453 336.708 292.619 336.523 292.835C336.338 293.051 336.21 293.31 336.15 293.588L334.715 300.404C334.664 300.651 334.669 300.907 334.729 301.152C334.789 301.397 334.903 301.626 335.063 301.822Z" fill="#272727"/>
<path d="M424.244 295.174H426.428C426.611 295.174 426.76 295.025 426.76 294.842V293.798C426.76 293.614 426.611 293.466 426.428 293.466H424.244C424.061 293.466 423.912 293.614 423.912 293.798V294.842C423.912 295.025 424.061 295.174 424.244 295.174Z" fill="#3F3D56"/>
<path d="M418.548 295.174H420.732C420.915 295.174 421.064 295.025 421.064 294.842V293.798C421.064 293.614 420.915 293.466 420.732 293.466H418.548C418.365 293.466 418.216 293.614 418.216 293.798V294.842C418.216 295.025 418.365 295.174 418.548 295.174Z" fill="#3F3D56"/>
<path d="M412.852 295.174H415.036C415.219 295.174 415.368 295.025 415.368 294.842V293.798C415.368 293.614 415.219 293.466 415.036 293.466H412.852C412.669 293.466 412.52 293.614 412.52 293.798V294.842C412.52 295.025 412.669 295.174 412.852 295.174Z" fill="#3F3D56"/>
<path d="M407.156 295.174H409.34C409.523 295.174 409.672 295.025 409.672 294.842V293.798C409.672 293.614 409.523 293.466 409.34 293.466H407.156C406.973 293.466 406.824 293.614 406.824 293.798V294.842C406.824 295.025 406.973 295.174 407.156 295.174Z" fill="#3F3D56"/>
<path d="M401.46 295.174H403.644C403.827 295.174 403.976 295.025 403.976 294.842V293.798C403.976 293.614 403.827 293.466 403.644 293.466H401.46C401.277 293.466 401.128 293.614 401.128 293.798V294.842C401.128 295.025 401.277 295.174 401.46 295.174Z" fill="#3F3D56"/>
<path d="M395.764 295.174H397.948C398.132 295.174 398.28 295.025 398.28 294.842V293.798C398.28 293.614 398.132 293.466 397.948 293.466H395.764C395.581 293.466 395.432 293.614 395.432 293.798V294.842C395.432 295.025 395.581 295.174 395.764 295.174Z" fill="#3F3D56"/>
<path d="M390.068 295.174H392.252C392.436 295.174 392.584 295.025 392.584 294.842V293.798C392.584 293.614 392.436 293.466 392.252 293.466H390.068C389.885 293.466 389.736 293.614 389.736 293.798V294.842C389.736 295.025 389.885 295.174 390.068 295.174Z" fill="#3F3D56"/>
<path d="M384.372 295.174H386.556C386.74 295.174 386.888 295.025 386.888 294.842V293.798C386.888 293.614 386.74 293.466 386.556 293.466H384.372C384.189 293.466 384.04 293.614 384.04 293.798V294.842C384.04 295.025 384.189 295.174 384.372 295.174Z" fill="#3F3D56"/>
<path d="M378.676 295.174H380.86C381.044 295.174 381.192 295.025 381.192 294.842V293.798C381.192 293.614 381.044 293.466 380.86 293.466H378.676C378.493 293.466 378.344 293.614 378.344 293.798V294.842C378.344 295.025 378.493 295.174 378.676 295.174Z" fill="#3F3D56"/>
<path d="M372.981 295.174H375.165C375.348 295.174 375.497 295.025 375.497 294.842V293.798C375.497 293.614 375.348 293.466 375.165 293.466H372.981C372.797 293.466 372.649 293.614 372.649 293.798V294.842C372.649 295.025 372.797 295.174 372.981 295.174Z" fill="#3F3D56"/>
<path d="M367.284 295.174H369.469C369.652 295.174 369.801 295.025 369.801 294.842V293.798C369.801 293.614 369.652 293.466 369.469 293.466H367.284C367.101 293.466 366.953 293.614 366.953 293.798V294.842C366.953 295.025 367.101 295.174 367.284 295.174Z" fill="#3F3D56"/>
<path d="M361.588 295.174H363.773C363.956 295.174 364.104 295.025 364.104 294.842V293.798C364.104 293.614 363.956 293.466 363.773 293.466H361.588C361.405 293.466 361.256 293.614 361.256 293.798V294.842C361.256 295.025 361.405 295.174 361.588 295.174Z" fill="#3F3D56"/>
<path d="M355.893 295.174H358.077C358.26 295.174 358.409 295.025 358.409 294.842V293.798C358.409 293.614 358.26 293.466 358.077 293.466H355.893C355.709 293.466 355.561 293.614 355.561 293.798V294.842C355.561 295.025 355.709 295.174 355.893 295.174Z" fill="#3F3D56"/>
<path d="M350.197 295.174H352.381C352.564 295.174 352.713 295.025 352.713 294.842V293.798C352.713 293.614 352.564 293.466 352.381 293.466H350.197C350.013 293.466 349.865 293.614 349.865 293.798V294.842C349.865 295.025 350.013 295.174 350.197 295.174Z" fill="#3F3D56"/>
<path d="M344.501 295.174H346.685C346.868 295.174 347.017 295.025 347.017 294.842V293.798C347.017 293.614 346.868 293.466 346.685 293.466H344.501C344.317 293.466 344.169 293.614 344.169 293.798V294.842C344.169 295.025 344.317 295.174 344.501 295.174Z" fill="#3F3D56"/>
<path d="M338.805 295.174H340.989C341.172 295.174 341.321 295.025 341.321 294.842V293.798C341.321 293.614 341.172 293.466 340.989 293.466H338.805C338.621 293.466 338.473 293.614 338.473 293.798V294.842C338.473 295.025 338.621 295.174 338.805 295.174Z" fill="#3F3D56"/>
<path d="M424.311 298.021H426.495C426.679 298.021 426.827 297.873 426.827 297.689V296.645C426.827 296.462 426.679 296.313 426.495 296.313H424.311C424.128 296.313 423.979 296.462 423.979 296.645V297.689C423.979 297.873 424.128 298.021 424.311 298.021Z" fill="#3F3D56"/>
<path d="M418.615 298.021H420.799C420.983 298.021 421.131 297.873 421.131 297.689V296.645C421.131 296.462 420.983 296.313 420.799 296.313H418.615C418.432 296.313 418.283 296.462 418.283 296.645V297.689C418.283 297.873 418.432 298.021 418.615 298.021Z" fill="#3F3D56"/>
<path d="M412.919 298.021H415.103C415.287 298.021 415.435 297.873 415.435 297.689V296.645C415.435 296.462 415.287 296.313 415.103 296.313H412.919C412.736 296.313 412.587 296.462 412.587 296.645V297.689C412.587 297.873 412.736 298.021 412.919 298.021Z" fill="#3F3D56"/>
<path d="M407.223 298.021H409.408C409.591 298.021 409.74 297.873 409.74 297.689V296.645C409.74 296.462 409.591 296.313 409.408 296.313H407.223C407.04 296.313 406.892 296.462 406.892 296.645V297.689C406.892 297.873 407.04 298.021 407.223 298.021Z" fill="#3F3D56"/>
<path d="M401.527 298.021H403.712C403.895 298.021 404.043 297.873 404.043 297.689V296.645C404.043 296.462 403.895 296.313 403.712 296.313H401.527C401.344 296.313 401.195 296.462 401.195 296.645V297.689C401.195 297.873 401.344 298.021 401.527 298.021Z" fill="#3F3D56"/>
<path d="M395.832 298.021H398.016C398.199 298.021 398.348 297.873 398.348 297.689V296.645C398.348 296.462 398.199 296.313 398.016 296.313H395.832C395.648 296.313 395.5 296.462 395.5 296.645V297.689C395.5 297.873 395.648 298.021 395.832 298.021Z" fill="#3F3D56"/>
<path d="M390.136 298.021H392.32C392.503 298.021 392.652 297.873 392.652 297.689V296.645C392.652 296.462 392.503 296.313 392.32 296.313H390.136C389.952 296.313 389.804 296.462 389.804 296.645V297.689C389.804 297.873 389.952 298.021 390.136 298.021Z" fill="#3F3D56"/>
<path d="M384.44 298.021H386.624C386.807 298.021 386.956 297.873 386.956 297.689V296.645C386.956 296.462 386.807 296.313 386.624 296.313H384.44C384.256 296.313 384.108 296.462 384.108 296.645V297.689C384.108 297.873 384.256 298.021 384.44 298.021Z" fill="#3F3D56"/>
<path d="M378.744 298.021H380.928C381.111 298.021 381.26 297.873 381.26 297.689V296.645C381.26 296.462 381.111 296.313 380.928 296.313H378.744C378.56 296.313 378.412 296.462 378.412 296.645V297.689C378.412 297.873 378.56 298.021 378.744 298.021Z" fill="#3F3D56"/>
<path d="M373.048 298.021H375.232C375.415 298.021 375.564 297.873 375.564 297.689V296.645C375.564 296.462 375.415 296.313 375.232 296.313H373.048C372.864 296.313 372.716 296.462 372.716 296.645V297.689C372.716 297.873 372.864 298.021 373.048 298.021Z" fill="#3F3D56"/>
<path d="M367.352 298.021H369.536C369.719 298.021 369.868 297.873 369.868 297.689V296.645C369.868 296.462 369.719 296.313 369.536 296.313H367.352C367.168 296.313 367.02 296.462 367.02 296.645V297.689C367.02 297.873 367.168 298.021 367.352 298.021Z" fill="#3F3D56"/>
<path d="M361.656 298.021H363.84C364.023 298.021 364.172 297.873 364.172 297.689V296.645C364.172 296.462 364.023 296.313 363.84 296.313H361.656C361.473 296.313 361.324 296.462 361.324 296.645V297.689C361.324 297.873 361.473 298.021 361.656 298.021Z" fill="#3F3D56"/>
<path d="M355.96 298.021H358.144C358.327 298.021 358.476 297.873 358.476 297.689V296.645C358.476 296.462 358.327 296.313 358.144 296.313H355.96C355.777 296.313 355.628 296.462 355.628 296.645V297.689C355.628 297.873 355.777 298.021 355.96 298.021Z" fill="#3F3D56"/>
<path d="M350.264 298.021H352.448C352.631 298.021 352.78 297.873 352.78 297.689V296.645C352.78 296.462 352.631 296.313 352.448 296.313H350.264C350.081 296.313 349.932 296.462 349.932 296.645V297.689C349.932 297.873 350.081 298.021 350.264 298.021Z" fill="#3F3D56"/>
<path d="M344.568 298.021H346.752C346.935 298.021 347.084 297.873 347.084 297.689V296.645C347.084 296.462 346.935 296.313 346.752 296.313H344.568C344.385 296.313 344.236 296.462 344.236 296.645V297.689C344.236 297.873 344.385 298.021 344.568 298.021Z" fill="#3F3D56"/>
<path d="M338.872 298.021H341.056C341.24 298.021 341.388 297.873 341.388 297.689V296.645C341.388 296.462 341.24 296.313 341.056 296.313H338.872C338.689 296.313 338.54 296.462 338.54 296.645V297.689C338.54 297.873 338.689 298.021 338.872 298.021Z" fill="#3F3D56"/>
<path d="M377.035 301.438H399.155C399.338 301.438 399.487 301.289 399.487 301.106V300.061C399.487 299.878 399.338 299.73 399.155 299.73H377.035C376.852 299.73 376.703 299.878 376.703 300.061V301.106C376.703 301.289 376.852 301.438 377.035 301.438Z" fill="#3F3D56"/>
<path d="M353.6 243.856H351.666C351.08 243.856 350.604 244.331 350.604 244.918C350.604 245.504 351.08 245.979 351.666 245.979H353.6C354.186 245.979 354.661 245.504 354.661 244.918C354.661 244.331 354.186 243.856 353.6 243.856Z" fill="white"/>
<path d="M375.714 243.856H373.78C373.194 243.856 372.719 244.331 372.719 244.918C372.719 245.504 373.194 245.979 373.78 245.979H375.714C376.3 245.979 376.775 245.504 376.775 244.918C376.775 244.331 376.3 243.856 375.714 243.856Z" fill="white"/>
<path d="M381.979 243.856H380.046C379.459 243.856 378.984 244.331 378.984 244.918C378.984 245.504 379.459 245.979 380.046 245.979H381.979C382.565 245.979 383.041 245.504 383.041 244.918C383.041 244.331 382.565 243.856 381.979 243.856Z" fill="white"/>
<path d="M369.699 243.68H357.681C357.095 243.68 356.62 244.155 356.62 244.741C356.62 245.327 357.095 245.802 357.681 245.802H369.699C370.285 245.802 370.76 245.327 370.76 244.741C370.76 244.155 370.285 243.68 369.699 243.68Z" fill="white"/>
<path d="M399.184 243.68H387.166C386.58 243.68 386.105 244.155 386.105 244.741C386.105 245.327 386.58 245.802 387.166 245.802H399.184C399.77 245.802 400.245 245.327 400.245 244.741C400.245 244.155 399.77 243.68 399.184 243.68Z" fill="white"/>
<path d="M359.497 248.646H357.563C356.977 248.646 356.501 249.122 356.501 249.708C356.501 250.294 356.977 250.769 357.563 250.769H359.497C360.083 250.769 360.558 250.294 360.558 249.708C360.558 249.122 360.083 248.646 359.497 248.646Z" fill="white"/>
<path d="M381.611 248.646H379.677C379.091 248.646 378.616 249.122 378.616 249.708C378.616 250.294 379.091 250.769 379.677 250.769H381.611C382.197 250.769 382.672 250.294 382.672 249.708C382.672 249.122 382.197 248.646 381.611 248.646Z" fill="white"/>
<path d="M387.876 248.646H385.943C385.357 248.646 384.881 249.122 384.881 249.708C384.881 250.294 385.357 250.769 385.943 250.769H387.876C388.463 250.769 388.938 250.294 388.938 249.708C388.938 249.122 388.463 248.646 387.876 248.646Z" fill="white"/>
<path d="M375.596 248.47H363.578C362.992 248.47 362.517 248.945 362.517 249.531C362.517 250.117 362.992 250.592 363.578 250.592H375.596C376.182 250.592 376.657 250.117 376.657 249.531C376.657 248.945 376.182 248.47 375.596 248.47Z" fill="white"/>
<path d="M405.081 248.47H393.064C392.477 248.47 392.002 248.945 392.002 249.531C392.002 250.117 392.477 250.592 393.064 250.592H405.081C405.667 250.592 406.143 250.117 406.143 249.531C406.143 248.945 405.667 248.47 405.081 248.47Z" fill="white"/>
<path d="M365.394 253.437H363.46C362.874 253.437 362.399 253.912 362.399 254.498C362.399 255.084 362.874 255.559 363.46 255.559H365.394C365.98 255.559 366.455 255.084 366.455 254.498C366.455 253.912 365.98 253.437 365.394 253.437Z" fill="white"/>
<path d="M387.508 253.437H385.574C384.988 253.437 384.513 253.912 384.513 254.498C384.513 255.084 384.988 255.559 385.574 255.559H387.508C388.094 255.559 388.569 255.084 388.569 254.498C388.569 253.912 388.094 253.437 387.508 253.437Z" fill="white"/>
<path d="M393.773 253.437H391.84C391.254 253.437 390.778 253.912 390.778 254.498C390.778 255.084 391.254 255.559 391.84 255.559H393.773C394.36 255.559 394.835 255.084 394.835 254.498C394.835 253.912 394.36 253.437 393.773 253.437Z" fill="white"/>
<path d="M381.493 253.26H369.475C368.889 253.26 368.414 253.735 368.414 254.321C368.414 254.907 368.889 255.382 369.475 255.382H381.493C382.079 255.382 382.554 254.907 382.554 254.321C382.554 253.735 382.079 253.26 381.493 253.26Z" fill="white"/>
<path d="M410.978 253.26H398.961C398.374 253.26 397.899 253.735 397.899 254.321C397.899 254.907 398.374 255.382 398.961 255.382H410.978C411.564 255.382 412.04 254.907 412.04 254.321C412.04 253.735 411.564 253.26 410.978 253.26Z" fill="white"/>
<path d="M371.291 258.227H369.357C368.771 258.227 368.296 258.702 368.296 259.288C368.296 259.874 368.771 260.349 369.357 260.349H371.291C371.877 260.349 372.352 259.874 372.352 259.288C372.352 258.702 371.877 258.227 371.291 258.227Z" fill="white"/>
<path d="M393.405 258.227H391.471C390.885 258.227 390.41 258.702 390.41 259.288C390.41 259.874 390.885 260.349 391.471 260.349H393.405C393.991 260.349 394.466 259.874 394.466 259.288C394.466 258.702 393.991 258.227 393.405 258.227Z" fill="white"/>
<path d="M399.671 258.227H397.737C397.151 258.227 396.676 258.702 396.676 259.288C396.676 259.874 397.151 260.349 397.737 260.349H399.671C400.257 260.349 400.732 259.874 400.732 259.288C400.732 258.702 400.257 258.227 399.671 258.227Z" fill="white"/>
<path d="M387.39 258.05H375.372C374.786 258.05 374.311 258.525 374.311 259.111C374.311 259.697 374.786 260.172 375.372 260.172H387.39C387.976 260.172 388.451 259.697 388.451 259.111C388.451 258.525 387.976 258.05 387.39 258.05Z" fill="white"/>
<path d="M375.714 277.274H373.78C373.194 277.274 372.719 277.749 372.719 278.335C372.719 278.921 373.194 279.396 373.78 279.396H375.714C376.3 279.396 376.775 278.921 376.775 278.335C376.775 277.749 376.3 277.274 375.714 277.274Z" fill="white"/>
<path d="M381.979 277.274H380.046C379.459 277.274 378.984 277.749 378.984 278.335C378.984 278.921 379.459 279.396 380.046 279.396H381.979C382.565 279.396 383.041 278.921 383.041 278.335C383.041 277.749 382.565 277.274 381.979 277.274Z" fill="white"/>
<path d="M399.184 277.451H387.166C386.58 277.451 386.105 277.926 386.105 278.512C386.105 279.098 386.58 279.573 387.166 279.573H399.184C399.77 279.573 400.245 279.098 400.245 278.512C400.245 277.926 399.77 277.451 399.184 277.451Z" fill="white"/>
<path d="M353.6 277.274H351.666C351.08 277.274 350.604 277.749 350.604 278.335C350.604 278.921 351.08 279.396 351.666 279.396H353.6C354.186 279.396 354.661 278.921 354.661 278.335C354.661 277.749 354.186 277.274 353.6 277.274Z" fill="white"/>
<path d="M369.699 277.451H357.681C357.095 277.451 356.62 277.926 356.62 278.512C356.62 279.098 357.095 279.573 357.681 279.573H369.699C370.285 279.573 370.76 279.098 370.76 278.512C370.76 277.926 370.285 277.451 369.699 277.451Z" fill="white"/>
<path d="M359.497 272.484H357.563C356.977 272.484 356.501 272.959 356.501 273.545C356.501 274.131 356.977 274.606 357.563 274.606H359.497C360.083 274.606 360.558 274.131 360.558 273.545C360.558 272.959 360.083 272.484 359.497 272.484Z" fill="white"/>
<path d="M381.611 272.484H379.677C379.091 272.484 378.616 272.959 378.616 273.545C378.616 274.131 379.091 274.606 379.677 274.606H381.611C382.197 274.606 382.672 274.131 382.672 273.545C382.672 272.959 382.197 272.484 381.611 272.484Z" fill="white"/>
<path d="M387.876 272.484H385.943C385.357 272.484 384.881 272.959 384.881 273.545C384.881 274.131 385.357 274.606 385.943 274.606H387.876C388.463 274.606 388.938 274.131 388.938 273.545C388.938 272.959 388.463 272.484 387.876 272.484Z" fill="white"/>
<path d="M375.596 272.661H363.578C362.992 272.661 362.517 273.136 362.517 273.722C362.517 274.308 362.992 274.783 363.578 274.783H375.596C376.182 274.783 376.657 274.308 376.657 273.722C376.657 273.136 376.182 272.661 375.596 272.661Z" fill="white"/>
<path d="M365.394 267.694H363.46C362.874 267.694 362.399 268.169 362.399 268.755C362.399 269.341 362.874 269.816 363.46 269.816H365.394C365.98 269.816 366.455 269.341 366.455 268.755C366.455 268.169 365.98 267.694 365.394 267.694Z" fill="white"/>
<path d="M387.508 267.694H385.574C384.988 267.694 384.513 268.169 384.513 268.755C384.513 269.341 384.988 269.816 385.574 269.816H387.508C388.094 269.816 388.569 269.341 388.569 268.755C388.569 268.169 388.094 267.694 387.508 267.694Z" fill="white"/>
<path d="M393.773 267.694H391.84C391.254 267.694 390.778 268.169 390.778 268.755C390.778 269.341 391.254 269.816 391.84 269.816H393.773C394.36 269.816 394.835 269.341 394.835 268.755C394.835 268.169 394.36 267.694 393.773 267.694Z" fill="white"/>
<path d="M381.493 267.871H369.475C368.889 267.871 368.414 268.346 368.414 268.932C368.414 269.518 368.889 269.993 369.475 269.993H381.493C382.079 269.993 382.554 269.518 382.554 268.932C382.554 268.346 382.079 267.871 381.493 267.871Z" fill="white"/>
<path d="M371.291 262.904H369.357C368.771 262.904 368.296 263.379 368.296 263.965C368.296 264.551 368.771 265.026 369.357 265.026H371.291C371.877 265.026 372.352 264.551 372.352 263.965C372.352 263.379 371.877 262.904 371.291 262.904Z" fill="white"/>
<path d="M393.405 262.904H391.471C390.885 262.904 390.41 263.379 390.41 263.965C390.41 264.551 390.885 265.026 391.471 265.026H393.405C393.991 265.026 394.466 264.551 394.466 263.965C394.466 263.379 393.991 262.904 393.405 262.904Z" fill="white"/>
<path d="M399.671 262.904H397.737C397.151 262.904 396.676 263.379 396.676 263.965C396.676 264.551 397.151 265.026 397.737 265.026H399.671C400.257 265.026 400.732 264.551 400.732 263.965C400.732 263.379 400.257 262.904 399.671 262.904Z" fill="white"/>
<path d="M387.39 263.081H375.372C374.786 263.081 374.311 263.556 374.311 264.142C374.311 264.728 374.786 265.203 375.372 265.203H387.39C387.976 265.203 388.451 264.728 388.451 264.142C388.451 263.556 387.976 263.081 387.39 263.081Z" fill="white"/>
<path d="M343.32 333.412L334.243 319.067L362.734 296.361L374.494 283.336C376.022 281.644 377.967 280.383 380.136 279.677C382.304 278.972 384.62 278.849 386.851 279.318C389.082 279.788 391.151 280.835 392.851 282.355C394.55 283.874 395.821 285.813 396.537 287.978C397.597 291.185 397.369 294.679 395.901 297.722C394.433 300.765 391.84 303.118 388.67 304.286L370.074 311.135L343.32 333.412Z" fill="#FFB6B6"/>
<path d="M130.34 229.407V299.124H179.195V229.407C179.195 228.906 179.035 228.417 178.738 228.014C178.441 227.61 178.022 227.312 177.542 227.164C177.317 227.089 177.08 227.053 176.842 227.055H132.7C132.39 227.055 132.084 227.115 131.797 227.233C131.511 227.351 131.251 227.524 131.032 227.742C130.813 227.961 130.639 228.22 130.52 228.506C130.402 228.792 130.34 229.098 130.34 229.407ZM149.406 253.362C149.419 251.988 149.974 250.674 150.95 249.706C151.927 248.739 153.246 248.196 154.621 248.196C155.996 248.196 157.315 248.739 158.292 249.706C159.269 250.674 159.824 251.988 159.836 253.362V261.451C159.829 262.829 159.277 264.149 158.3 265.121C157.322 266.093 156 266.638 154.621 266.638C153.243 266.638 151.92 266.093 150.943 265.121C149.966 264.149 149.413 262.829 149.406 261.451V253.362Z" fill="#272727"/>
<path d="M130.19 296.894V303.617C130.192 303.965 130.33 304.299 130.576 304.546C130.821 304.793 131.154 304.933 131.503 304.936H178.032C178.381 304.934 178.714 304.794 178.96 304.547C179.206 304.3 179.344 303.966 179.344 303.617V296.894H130.19Z" fill="#3F3D56"/>
<path d="M53.4851 124.37V251.663C53.4864 253.285 54.1315 254.84 55.2789 255.987C56.4263 257.134 57.9821 257.779 59.6047 257.78H248.291C249.914 257.779 251.47 257.134 252.617 255.987C253.765 254.84 254.41 253.285 254.411 251.663V124.37C254.407 122.749 253.761 121.196 252.614 120.051C251.467 118.905 249.913 118.261 248.291 118.259H59.6047C57.9835 118.261 56.4292 118.905 55.2822 120.051C54.1352 121.196 53.489 122.749 53.4851 124.37Z" fill="#272727"/>
<path d="M57.9116 125.954V250.092C57.9131 250.959 58.2582 251.79 58.8712 252.403C59.4842 253.016 60.3152 253.361 61.1822 253.362H246.721C247.588 253.361 248.419 253.016 249.032 252.403C249.645 251.79 249.99 250.959 249.991 250.092V125.954C249.991 125.086 249.647 124.254 249.034 123.64C248.421 123.025 247.589 122.679 246.721 122.677H61.1822C60.3142 122.679 59.4824 123.025 58.8692 123.64C58.2561 124.254 57.9117 125.086 57.9116 125.954Z" fill="white"/>
<path d="M92.3444 304.48C92.5332 304.717 92.7733 304.908 93.0465 305.039C93.3197 305.169 93.619 305.236 93.9219 305.235H204.305C204.607 305.234 204.905 305.167 205.178 305.037C205.45 304.907 205.69 304.718 205.88 304.483C206.07 304.249 206.206 303.975 206.277 303.682C206.348 303.389 206.353 303.083 206.291 302.788L204.577 294.651C204.506 294.319 204.353 294.01 204.132 293.753C203.912 293.495 203.63 293.297 203.313 293.176C203.083 293.086 202.838 293.04 202.592 293.04H95.6286C95.3819 293.04 95.1374 293.086 94.9078 293.176C94.5907 293.297 94.3088 293.495 94.0879 293.753C93.867 294.01 93.7141 294.319 93.6431 294.651L91.9296 302.788C91.8687 303.083 91.8742 303.388 91.946 303.681C92.0177 303.974 92.1538 304.247 92.3444 304.48Z" fill="#272727"/>
<path d="M240.699 139.778H67.0917C66.9113 139.774 66.7396 139.7 66.6134 139.571C66.4872 139.442 66.4165 139.268 66.4165 139.088C66.4165 138.907 66.4872 138.734 66.6134 138.605C66.7396 138.476 66.9113 138.402 67.0917 138.398H240.699C240.88 138.402 241.052 138.476 241.178 138.605C241.304 138.734 241.375 138.907 241.375 139.088C241.375 139.268 241.304 139.442 241.178 139.571C241.052 139.7 240.88 139.774 240.699 139.778Z" fill="#272727"/>
<path d="M78.9093 134.874C81.1438 134.874 82.9553 133.022 82.9553 130.739C82.9553 128.455 81.1438 126.604 78.9093 126.604C76.6747 126.604 74.8633 128.455 74.8633 130.739C74.8633 133.022 76.6747 134.874 78.9093 134.874Z" fill="#272727"/>
<path d="M92.8866 134.874C95.1211 134.874 96.9326 133.022 96.9326 130.739C96.9326 128.455 95.1211 126.604 92.8866 126.604C90.652 126.604 88.8406 128.455 88.8406 130.739C88.8406 133.022 90.652 134.874 92.8866 134.874Z" fill="#272727"/>
<path d="M106.864 134.874C109.098 134.874 110.91 133.022 110.91 130.739C110.91 128.455 109.098 126.604 106.864 126.604C104.629 126.604 102.818 128.455 102.818 130.739C102.818 133.022 104.629 134.874 106.864 134.874Z" fill="#272727"/>
<path d="M232.283 127.626H222.355C222.159 127.631 221.972 127.712 221.835 127.852C221.698 127.993 221.621 128.181 221.621 128.377C221.621 128.574 221.698 128.762 221.835 128.902C221.972 129.043 222.159 129.124 222.355 129.128H232.283C232.48 129.126 232.669 129.045 232.807 128.905C232.946 128.764 233.024 128.575 233.024 128.377C233.024 128.18 232.946 127.99 232.807 127.85C232.669 127.709 232.48 127.629 232.283 127.626Z" fill="#272727"/>
<path d="M232.283 130.447H222.356C222.159 130.452 221.972 130.533 221.835 130.673C221.698 130.813 221.621 131.002 221.621 131.198C221.621 131.395 221.698 131.583 221.835 131.724C221.972 131.864 222.159 131.945 222.356 131.95H232.283C232.481 131.947 232.669 131.867 232.808 131.726C232.947 131.586 233.025 131.396 233.025 131.198C233.025 131.001 232.947 130.811 232.808 130.67C232.669 130.53 232.481 130.45 232.283 130.447Z" fill="#272727"/>
<path d="M232.283 133.268H222.355C222.159 133.273 221.972 133.354 221.835 133.494C221.698 133.635 221.621 133.823 221.621 134.019C221.621 134.216 221.698 134.404 221.835 134.544C221.972 134.685 222.159 134.766 222.355 134.77H232.283C232.48 134.768 232.669 134.687 232.807 134.547C232.946 134.406 233.024 134.217 233.024 134.019C233.024 133.822 232.946 133.632 232.807 133.492C232.669 133.351 232.48 133.271 232.283 133.268Z" fill="#272727"/>
<path d="M471.612 299.845C471.912 300.717 472.48 301.471 473.235 302C473.991 302.529 474.894 302.805 475.816 302.789L493.83 302.325C494.758 302.307 495.656 301.989 496.389 301.418C497.123 300.848 497.651 300.055 497.896 299.16L500.445 271.91C501.35 272.319 502.334 272.522 503.327 272.502C504.189 272.48 505.039 272.289 505.828 271.939C506.616 271.589 507.328 271.087 507.922 270.462C508.517 269.837 508.982 269.101 509.292 268.296C509.602 267.492 509.751 266.634 509.729 265.771C509.708 264.909 509.516 264.06 509.166 263.272C508.816 262.483 508.314 261.772 507.689 261.177C507.064 260.583 506.328 260.118 505.523 259.808C504.718 259.498 503.86 259.349 502.997 259.371C502.6 259.37 502.205 259.411 501.817 259.494C501.395 259.037 500.882 258.674 500.311 258.428C499.74 258.182 499.124 258.058 498.503 258.064L470.794 258.779C470.564 258.788 470.336 258.816 470.111 258.864C469.503 258.978 468.927 259.22 468.421 259.574C467.914 259.929 467.49 260.388 467.176 260.92C466.862 261.452 466.666 262.046 466.6 262.66C466.535 263.275 466.602 263.896 466.797 264.482L471.612 299.845ZM500.968 270.059L502.782 263.566C502.988 262.816 502.993 262.025 502.796 261.272C502.884 261.272 502.961 261.23 503.049 261.23C504.293 261.204 505.496 261.673 506.395 262.532C507.294 263.392 507.815 264.573 507.844 265.816C507.873 267.06 507.408 268.264 506.55 269.165C505.693 270.066 504.513 270.59 503.269 270.622C502.465 270.647 501.67 270.453 500.968 270.059Z" fill="#272727"/>
<path d="M470.11 258.864C470.701 262.239 477.338 264.611 485.318 264.199C492.657 263.861 498.657 261.284 499.756 258.231C499.349 258.111 498.926 258.055 498.502 258.064L470.794 258.779C470.564 258.788 470.335 258.816 470.11 258.864Z" fill="#4A4A4A"/>
<path d="M486.781 284.871C486.817 284.861 486.852 284.846 486.883 284.825L490.795 282.266C490.842 282.235 490.881 282.193 490.908 282.143C490.935 282.093 490.949 282.038 490.949 281.981C490.949 281.925 490.935 281.87 490.908 281.82C490.882 281.77 490.843 281.728 490.795 281.697L486.729 279.035C486.692 279.01 486.65 278.993 486.606 278.985C486.562 278.976 486.517 278.976 486.473 278.985C486.43 278.994 486.388 279.012 486.351 279.037C486.314 279.062 486.282 279.094 486.258 279.132C486.233 279.169 486.216 279.211 486.208 279.255C486.2 279.299 486.2 279.344 486.209 279.388C486.219 279.432 486.236 279.473 486.262 279.51C486.287 279.547 486.319 279.579 486.357 279.603L489.988 281.981L486.511 284.257C486.444 284.301 486.394 284.367 486.371 284.444C486.348 284.521 486.354 284.604 486.386 284.678C486.418 284.751 486.476 284.811 486.548 284.846C486.62 284.882 486.703 284.89 486.781 284.871Z" fill="#F9F9F9"/>
<path d="M480.602 285.155C480.668 285.139 480.727 285.103 480.772 285.053C480.817 285.002 480.846 284.939 480.856 284.872C480.865 284.805 480.854 284.737 480.824 284.676C480.794 284.615 480.747 284.565 480.688 284.531L477.082 282.464L480.567 279.876C480.603 279.85 480.633 279.816 480.656 279.778C480.679 279.74 480.694 279.697 480.701 279.653C480.707 279.609 480.705 279.564 480.694 279.521C480.683 279.478 480.664 279.437 480.637 279.401C480.611 279.365 480.577 279.335 480.539 279.312C480.501 279.289 480.458 279.274 480.414 279.268C480.37 279.261 480.325 279.264 480.282 279.274C480.238 279.285 480.198 279.305 480.162 279.331L476.26 282.229C476.215 282.262 476.178 282.307 476.155 282.358C476.131 282.409 476.12 282.465 476.123 282.522C476.126 282.578 476.144 282.632 476.174 282.68C476.203 282.728 476.244 282.768 476.293 282.796L480.35 285.121C480.426 285.165 480.517 285.177 480.602 285.155Z" fill="#F9F9F9"/>
<path d="M486.391 287.114C486.424 287.106 486.456 287.092 486.485 287.075C486.523 287.051 486.556 287.021 486.582 286.985C486.609 286.949 486.628 286.908 486.638 286.865C486.649 286.821 486.651 286.776 486.644 286.732C486.637 286.688 486.622 286.646 486.599 286.607L481.053 277.493C481.006 277.416 480.931 277.361 480.843 277.34C480.755 277.319 480.663 277.333 480.586 277.38C480.509 277.427 480.454 277.502 480.433 277.59C480.411 277.677 480.425 277.77 480.472 277.847L486.018 286.961C486.055 287.023 486.112 287.072 486.179 287.099C486.247 287.126 486.321 287.132 486.391 287.114Z" fill="#F9F9F9"/>
<path d="M174.639 177.301H144.591C143.365 177.301 142.372 178.294 142.372 179.52V182.454C142.372 183.68 143.365 184.673 144.591 184.673H174.639C175.865 184.673 176.858 183.68 176.858 182.454V179.52C176.858 178.294 175.865 177.301 174.639 177.301Z" fill="#B00020"/>
<path d="M192.153 192.046H127.076C125.851 192.046 124.857 193.039 124.857 194.265V197.199C124.857 198.425 125.851 199.418 127.076 199.418H192.153C193.379 199.418 194.373 198.425 194.373 197.199V194.265C194.373 193.039 193.379 192.046 192.153 192.046Z" fill="#E6E6E6"/>
<path d="M192.153 206.791H127.076C125.851 206.791 124.857 207.784 124.857 209.01V211.944C124.857 213.17 125.851 214.163 127.076 214.163H192.153C193.379 214.163 194.373 213.17 194.373 211.944V209.01C194.373 207.784 193.379 206.791 192.153 206.791Z" fill="#E6E6E6"/>
<path d="M197.67 256.166L197.817 256.631L197.825 256.647L202.262 270.132L207.366 285.672L216.968 314.876L217.061 319.412V319.428L217.775 355.92L215.797 360.868L218.023 368.979C218.023 368.979 216.999 356.718 211.508 363.759C208.397 367.76 204.759 371.855 201.773 375.693C206.124 377.454 210.546 379.046 215.037 380.47C216.006 380.78 216.984 381.075 217.961 381.37C218.171 381.432 218.38 381.494 218.589 381.556C233.477 385.957 248.868 388.43 264.385 388.915C265.191 388.938 265.983 388.953 266.751 388.969C267.022 388.977 267.286 388.985 267.55 388.985C268.418 388.992 269.279 389 270.148 389C271.901 389 273.646 388.974 275.384 388.923C288.244 388.56 301.029 386.831 313.523 383.766C313.438 378.609 313.205 372.584 312.872 366.147C312.717 362.991 309.234 359.572 309.024 356.268C308.877 353.787 312.003 351.453 311.84 348.932C310.785 333.416 309.467 339.372 308.489 328.384C308.388 327.306 308.295 326.275 308.21 325.29C307.582 318.233 307.147 313.821 307.147 313.821L311.32 287.525L317.875 246.24L317.371 245.411L316.804 245.131L282.233 228.025L280.356 223.217C279.809 221.832 278.86 220.642 277.631 219.801C276.402 218.959 274.95 218.504 273.46 218.495L250.687 218.402C249.505 218.396 248.339 218.673 247.285 219.208C246.231 219.744 245.321 220.522 244.629 221.48L238.462 230.018L197.67 256.166Z" fill="#4A4A4A"/>
<path d="M222.22 308.377L217.061 319.412L213.54 326.949L207.482 358.658L204.449 361.876L201.851 350.483L174.654 356.52C173.762 351.565 174.415 356.688 173.865 351.252C174.02 351.097 174.183 350.942 174.345 350.787C174.78 350.383 175.144 350.003 175.137 349.639C174.826 330.889 175.757 298.979 183.529 279.647C184.747 276.49 186.352 273.497 188.307 270.737C188.463 270.527 188.61 270.318 188.757 270.109C192.341 265.091 194.606 260.152 197.817 256.639V256.631C197.837 256.615 197.855 256.597 197.871 256.577C197.883 256.571 197.894 256.563 197.902 256.554L219.962 244.86L220.909 271.442L221.584 290.55L222.22 308.377Z" fill="#4A4A4A"/>
<path d="M301.764 311.511L308.207 325.294L310.456 330.093L316.512 361.799L319.535 365.009L322.139 353.619L323.363 353.368L345.433 348.799L351.866 369.223C353.316 366.808 353.887 363.967 353.483 361.179C353.079 358.392 351.725 355.829 349.649 353.925C349.209 353.527 348.843 353.14 348.854 352.774C349.22 330.721 347.87 290.451 335.685 273.877C331.815 268.617 329.493 263.378 326.114 259.718C326.104 259.708 326.104 259.698 326.093 259.698L317.872 246.239L317.37 245.413L316.805 245.131L301.764 311.511Z" fill="#4A4A4A"/>
<path d="M262.731 211.922C279.464 211.922 293.029 198.361 293.029 181.633C293.029 164.905 279.464 151.344 262.731 151.344C245.998 151.344 232.434 164.905 232.434 181.633C232.434 198.361 245.998 211.922 262.731 211.922Z" fill="#FFB6B6"/>
<path d="M303.682 160.476C303.447 160.226 303.164 160.025 302.85 159.886C302.535 159.747 302.196 159.672 301.853 159.668L302.308 158.403C302.457 158.005 302.497 157.574 302.425 157.155C302.352 156.737 302.169 156.345 301.895 156.019C301.621 155.694 301.266 155.448 300.865 155.305C300.465 155.163 300.033 155.129 299.616 155.208L297.957 155.528L298.113 154.42C298.173 154.007 298.124 153.586 297.972 153.198C297.82 152.809 297.569 152.467 297.245 152.205C296.92 151.943 296.533 151.77 296.121 151.703C295.71 151.636 295.288 151.678 294.897 151.823C294.541 151.963 294.159 152.022 293.777 151.995C293.396 151.967 293.026 151.855 292.694 151.667C292.36 151.484 292.07 151.23 291.845 150.924C291.619 150.617 291.464 150.265 291.388 149.892L290.81 147.105L290.749 146.956C287.934 142.266 282.522 138.853 275.899 137.602C270.004 136.481 263.959 137.052 258.132 137.589C255.82 137.806 253.209 138.051 251.033 139.383C249.184 140.525 247.62 142.809 247.939 145.114C242.194 143.353 236.033 146.868 232.98 151.3C229.363 156.575 228.771 163.182 228.676 168.348C228.418 180.57 230.94 190.57 236.156 198.074C236.536 198.618 236.632 199.753 237.386 200.134L237.23 199.882C238.073 200.304 238.93 200.983 238.61 201.711C237.692 203.805 243.792 208.434 248.089 209.963C255.929 212.757 266.352 212.519 273.682 211.513L273.941 209.78C276.586 209.419 278.449 208.733 278.972 207.659C279.897 206.87 280.686 206.163 281.373 205.511L281.379 205.504C281.393 205.49 281.42 205.47 281.434 205.456C284.745 202.282 285.513 200.474 285.86 197.721C286.193 195.022 285.602 192.283 284.997 189.815C297.739 191.786 279.979 176.247 291.851 173.242C291.987 173.2 292.125 173.166 292.265 173.14C292.612 173.059 292.959 172.977 293.292 172.882C294.898 172.446 296.436 171.79 297.861 170.931C301.18 168.912 302.274 166.234 303.988 163.216C304.235 162.786 304.339 162.289 304.284 161.796C304.229 161.303 304.018 160.841 303.682 160.476Z" fill="#2F2E41"/>
<path d="M369.889 313.668C369.882 314.858 369.868 316.523 369.814 318.583C369.807 318.868 369.8 319.16 369.794 319.46C369.705 323.246 369.617 326.42 369.474 329.948C369.467 330.193 369.46 330.431 369.447 330.676C369.256 335.597 368.957 341.328 368.44 350.402C367.482 367.165 365.809 352.707 364.13 358.587C364.048 358.879 363.96 359.226 363.878 359.634C363.624 361.113 363.195 362.558 362.6 363.936C361.709 364.467 360.791 364.977 359.887 365.486C357.31 366.921 354.692 368.301 352.054 369.613C350.571 370.347 349.082 371.067 347.586 371.761C347.348 371.869 347.117 371.978 346.886 372.08C339.226 375.622 331.331 378.634 323.258 381.094C321.68 381.57 320.11 382.032 318.518 382.46C316.859 382.922 315.2 383.357 313.521 383.765C301.027 386.832 288.242 388.561 275.382 388.925C273.648 388.979 271.901 388.999 270.147 388.999C269.276 388.999 268.42 388.993 267.549 388.986C267.284 388.986 267.019 388.979 266.754 388.972C265.985 388.952 265.19 388.938 264.387 388.918C248.87 388.434 233.479 385.96 218.593 381.556L217.96 381.372C216.981 381.073 216.009 380.781 215.037 380.468C210.549 379.048 206.127 377.457 201.771 375.696C198.446 374.357 195.159 372.921 191.911 371.387C191.882 371.379 191.854 371.365 191.83 371.346C191.15 371.033 190.463 370.707 189.783 370.374C189.695 370.326 189.599 370.279 189.504 370.231C186.968 368.994 184.459 367.698 181.977 366.343C179.89 361.55 176.952 360.633 175.13 356.418C174.6 355.166 174.216 353.857 173.988 352.516C173.988 352.503 173.981 352.489 173.981 352.469C174.171 354.998 173.172 347.982 173.974 352.442C173.967 352.36 173.961 352.272 173.954 352.17C173.933 351.925 173.906 351.626 173.865 351.252C171.533 328.487 171.683 302.452 170.67 280.999C170.602 279.612 170.531 278.284 170.459 277.015C170.438 276.594 170.411 276.179 170.384 275.771C170.432 275.649 170.486 275.52 170.547 275.397C170.56 275.362 170.576 275.328 170.595 275.295C170.615 275.253 170.638 275.212 170.663 275.173C170.676 275.153 170.697 275.125 170.71 275.105C170.72 275.082 170.732 275.059 170.744 275.037C170.806 274.942 170.874 274.84 170.948 274.745C170.982 274.704 171.01 274.67 171.044 274.636C171.067 274.601 171.094 274.569 171.125 274.541C171.146 274.508 171.171 274.478 171.2 274.452C171.227 274.425 171.254 274.391 171.288 274.357C171.303 274.336 171.321 274.317 171.343 274.303C171.397 274.241 171.456 274.184 171.52 274.133C171.762 273.91 172.021 273.705 172.295 273.521C172.39 273.46 172.492 273.399 172.587 273.331C173.272 272.921 173.994 272.575 174.743 272.298C175.001 272.202 175.259 272.114 175.538 272.019C175.64 271.992 175.735 271.958 175.837 271.924C175.987 271.876 176.136 271.829 176.293 271.795C177.068 271.563 177.904 271.366 178.809 271.183C178.917 271.162 179.033 271.142 179.149 271.115C179.312 271.081 179.482 271.054 179.652 271.026C179.883 270.986 180.121 270.945 180.359 270.904C182.378 270.585 184.67 270.347 187.199 270.19C187.437 270.177 187.675 270.163 187.913 270.15C188.192 270.136 188.471 270.122 188.756 270.109C188.994 270.095 189.239 270.088 189.484 270.082C189.722 270.068 189.967 270.061 190.218 270.054C190.905 270.034 191.612 270.014 192.333 270C194.386 269.959 196.549 269.973 198.82 270.02C199.874 270.048 200.948 270.075 202.049 270.122C202.124 270.122 202.192 270.129 202.26 270.129C203.219 270.163 204.184 270.204 205.177 270.258C205.871 270.292 206.571 270.326 207.271 270.367C207.931 270.408 208.597 270.449 209.27 270.496C209.794 270.523 210.318 270.564 210.848 270.598C211.297 270.632 211.746 270.666 212.194 270.693L212.806 270.734C213.139 270.761 213.473 270.782 213.813 270.816C214.561 270.877 215.308 270.938 216.07 270.999C216.825 271.067 217.593 271.135 218.361 271.203C219.13 271.271 219.905 271.346 220.68 271.421C220.762 271.427 220.836 271.434 220.911 271.441C221.618 271.516 222.326 271.584 223.04 271.659C223.203 271.672 223.373 271.686 223.536 271.706C224.217 271.775 224.911 271.855 225.597 271.928C225.808 271.95 226.018 271.972 226.229 271.995C226.768 272.054 227.298 272.105 227.84 272.168C228.554 272.25 229.281 272.325 229.989 272.42C230.539 272.481 231.09 272.542 231.641 272.61C232.504 272.712 233.382 272.821 234.259 272.937C234.592 272.977 234.925 273.018 235.258 273.066C237.76 273.378 240.29 273.725 242.86 274.085C246.756 274.636 250.713 275.234 254.698 275.88C258.689 276.526 262.703 277.208 266.74 277.926C267.76 278.11 268.78 278.293 269.807 278.483C270.269 278.572 270.731 278.66 271.194 278.748C271.982 278.891 272.771 279.041 273.56 279.19C274.349 279.34 275.137 279.489 275.926 279.646C276.864 279.829 277.81 280.013 278.748 280.196C284.929 281.42 291.075 282.725 297.073 284.091C298.059 284.316 299.045 284.547 300.024 284.771C301.982 285.227 303.922 285.689 305.844 286.158C306.374 286.28 306.898 286.409 307.422 286.539C308.727 286.865 310.033 287.191 311.318 287.524L311.542 287.585C312.487 287.817 313.412 288.054 314.337 288.299C316.519 288.87 318.666 289.448 320.776 290.033C322.176 290.42 323.561 290.812 324.93 291.209C326.977 291.8 328.983 292.398 330.934 293.003C331.417 293.153 331.9 293.302 332.376 293.445C333.804 293.887 335.211 294.335 336.578 294.784C337.666 295.138 338.727 295.498 339.774 295.858C340.821 296.218 341.848 296.579 342.854 296.939C343.5 297.17 344.139 297.415 344.778 297.646C345.696 297.986 346.6 298.326 347.484 298.666C347.756 298.768 348.021 298.876 348.287 298.978C348.457 299.053 348.62 299.114 348.783 299.182C349.103 299.311 349.429 299.434 349.742 299.563C350.061 299.685 350.374 299.814 350.687 299.95C350.993 300.073 351.306 300.202 351.605 300.331C351.911 300.453 352.21 300.582 352.509 300.718C352.761 300.82 353.006 300.929 353.243 301.038C353.726 301.249 354.209 301.459 354.678 301.677C354.909 301.786 355.141 301.888 355.372 301.996L355.902 302.241C355.977 302.282 356.052 302.316 356.126 302.35C356.296 302.431 356.473 302.52 356.643 302.601C357.038 302.785 357.425 302.982 357.806 303.166C358.316 303.424 358.812 303.682 359.288 303.934C359.771 304.192 360.24 304.45 360.689 304.702C360.764 304.743 360.832 304.783 360.907 304.824C361.009 304.879 361.111 304.94 361.213 304.994C361.559 305.191 361.892 305.395 362.226 305.592C362.878 305.993 363.497 306.388 364.075 306.782C364.204 306.87 364.327 306.959 364.456 307.04C364.884 307.346 365.292 307.645 365.673 307.951C365.673 307.958 365.673 307.958 365.68 307.958C365.809 308.053 365.931 308.155 366.054 308.25C366.156 308.345 366.265 308.427 366.367 308.522C366.72 308.828 367.047 309.12 367.346 309.419C367.446 309.512 367.541 309.609 367.631 309.712C367.671 309.744 367.707 309.781 367.74 309.82C367.876 309.956 367.998 310.092 368.114 310.228C368.132 310.247 368.148 310.268 368.162 310.289C368.325 310.48 368.474 310.67 368.617 310.861C368.685 310.956 368.76 311.051 368.821 311.146C368.903 311.262 368.984 311.384 369.052 311.499C369.114 311.595 369.168 311.697 369.222 311.792C369.367 312.037 369.49 312.294 369.59 312.56C369.666 312.74 369.727 312.927 369.773 313.117C369.825 313.298 369.863 313.482 369.889 313.668Z" fill="#363636"/>
<path opacity="0.3" d="M369.889 313.668C369.882 314.858 369.868 316.523 369.814 318.583C369.807 318.868 369.794 319.16 369.787 319.46C369.719 322.349 369.617 325.917 369.474 329.948C369.467 330.193 369.46 330.431 369.447 330.676C369.256 335.597 368.957 341.328 368.44 350.402C367.482 367.165 365.809 352.707 364.13 358.587C359.465 355.718 354.352 352.714 348.885 349.627C347.899 349.07 346.904 348.51 345.9 347.948C334.966 341.851 322.755 335.461 310.005 329.133C309.502 328.881 308.992 328.63 308.489 328.385C279.285 313.953 247.409 299.916 221.584 290.549C216.6 288.741 211.841 287.11 207.367 285.675C197.942 282.664 189.797 280.557 183.527 279.646C177 278.694 172.492 279.034 170.67 280.998C170.602 279.612 170.531 278.284 170.459 277.015C170.432 276.594 170.404 276.179 170.377 275.771C170.419 275.659 170.474 275.552 170.526 275.445C170.534 275.429 170.539 275.413 170.547 275.397C170.56 275.362 170.576 275.328 170.595 275.295C170.615 275.253 170.638 275.212 170.663 275.173C170.685 275.125 170.712 275.079 170.744 275.037C170.806 274.942 170.874 274.84 170.948 274.745C171.003 274.673 171.062 274.605 171.125 274.541C171.146 274.508 171.171 274.478 171.2 274.452C171.227 274.425 171.254 274.391 171.288 274.357C171.303 274.336 171.321 274.317 171.343 274.303C171.397 274.241 171.456 274.184 171.52 274.133C171.762 273.91 172.021 273.705 172.295 273.521C172.39 273.46 172.492 273.399 172.587 273.331C173.272 272.921 173.994 272.575 174.742 272.298C175.001 272.202 175.259 272.114 175.538 272.019C175.64 271.992 175.735 271.958 175.837 271.924C175.987 271.876 176.136 271.828 176.293 271.794C177.068 271.563 177.904 271.366 178.809 271.183C179.081 271.128 179.366 271.074 179.652 271.026C179.883 270.986 180.121 270.945 180.359 270.904C182.378 270.585 184.67 270.347 187.199 270.19C187.437 270.177 187.675 270.163 187.913 270.149C188.192 270.136 188.471 270.122 188.756 270.109C188.994 270.095 189.239 270.088 189.484 270.081C189.722 270.068 189.967 270.061 190.218 270.054C190.905 270.034 191.612 270.013 192.333 270C194.386 269.966 196.549 269.979 198.82 270.027C199.874 270.047 200.948 270.081 202.049 270.129C202.117 270.129 202.192 270.136 202.26 270.136C203.219 270.163 204.191 270.211 205.177 270.258C205.871 270.292 206.571 270.326 207.271 270.367C207.931 270.408 208.597 270.449 209.27 270.496C209.794 270.523 210.318 270.564 210.848 270.598C211.297 270.632 211.745 270.666 212.194 270.693C212.731 270.734 213.269 270.775 213.813 270.816C214.56 270.877 215.308 270.938 216.07 270.999C216.825 271.067 217.593 271.135 218.361 271.203C219.13 271.271 219.905 271.346 220.68 271.421C220.762 271.427 220.836 271.434 220.911 271.441C221.618 271.516 222.326 271.584 223.039 271.659C226.997 272.06 231.07 272.529 235.258 273.066C237.76 273.385 240.294 273.727 242.86 274.092C246.756 274.643 250.714 275.241 254.698 275.88C258.689 276.526 262.703 277.208 266.74 277.926C267.76 278.109 268.78 278.293 269.807 278.483C271.058 278.714 272.309 278.95 273.56 279.19C274.349 279.34 275.137 279.489 275.926 279.646C276.864 279.829 277.81 280.013 278.748 280.196C284.929 281.42 291.075 282.725 297.073 284.091C298.059 284.316 299.045 284.547 300.024 284.771C301.982 285.227 303.922 285.689 305.844 286.158C306.374 286.287 306.898 286.416 307.422 286.545C308.734 286.872 310.033 287.198 311.318 287.524V287.531C311.392 287.545 311.467 287.565 311.542 287.585C312.48 287.823 313.412 288.061 314.337 288.306C316.519 288.877 318.666 289.452 320.776 290.033C322.177 290.427 323.564 290.814 324.93 291.209C326.977 291.807 328.983 292.405 330.934 293.003C331.417 293.153 331.9 293.302 332.376 293.445C333.804 293.894 335.204 294.34 336.578 294.784C337.666 295.138 338.727 295.498 339.774 295.858C340.821 296.218 341.848 296.579 342.854 296.939C343.507 297.17 344.146 297.408 344.778 297.639C345.703 297.979 346.6 298.319 347.484 298.666C347.756 298.767 348.021 298.876 348.287 298.978C348.783 299.169 349.266 299.366 349.742 299.563C350.061 299.685 350.374 299.814 350.687 299.95C350.993 300.073 351.306 300.202 351.605 300.331C351.911 300.453 352.21 300.582 352.509 300.718C352.761 300.82 353.006 300.929 353.244 301.038C353.726 301.249 354.209 301.459 354.678 301.677C354.909 301.786 355.141 301.888 355.372 301.996L355.902 302.241C355.977 302.282 356.052 302.316 356.127 302.35C356.704 302.622 357.262 302.894 357.806 303.166C358.316 303.424 358.812 303.682 359.288 303.934C359.853 304.233 360.39 304.525 360.907 304.824C361.009 304.879 361.111 304.94 361.213 304.994C361.559 305.191 361.893 305.395 362.226 305.592C362.878 305.993 363.497 306.388 364.075 306.782C364.646 307.176 365.177 307.564 365.673 307.951C365.673 307.958 365.673 307.958 365.68 307.958C365.918 308.148 366.149 308.339 366.367 308.522C366.72 308.828 367.047 309.12 367.346 309.419C367.446 309.512 367.541 309.609 367.631 309.712C367.671 309.744 367.707 309.781 367.74 309.82C367.883 309.977 368.026 310.133 368.162 310.289C368.325 310.48 368.475 310.67 368.617 310.86C368.685 310.956 368.76 311.051 368.821 311.146C368.903 311.261 368.984 311.384 369.052 311.499C369.114 311.595 369.168 311.697 369.222 311.792C369.367 312.037 369.49 312.294 369.59 312.56C369.664 312.741 369.725 312.927 369.773 313.117C369.825 313.298 369.863 313.482 369.889 313.668Z" fill="#111111"/>
</g>
</g>
<defs>
<linearGradient id="paint0_linear_1425_1352" x1="403.385" y1="39.2837" x2="212.518" y2="324.1" gradientUnits="userSpaceOnUse">
<stop stop-color="#51767F"/>
<stop offset="1" stop-color="#394949"/>
</linearGradient>
<clipPath id="clip0_1425_1352">
<rect width="535" height="389" fill="white"/>
</clipPath>
</defs>
</svg>
