<svg width="128" height="56" viewBox="0 0 128 56" fill="none" xmlns="http://www.w3.org/2000/svg">
<rect x="14.7031" y="13.1597" width="4.63025" height="27.619" rx="0.406162" stroke="url(#paint0_linear_5_11)" stroke-width="0.812325"/>
<rect x="22.9076" y="13.1597" width="4.63025" height="27.619" rx="0.406162" stroke="url(#paint1_linear_5_11)" stroke-width="0.812325"/>
<path d="M39.4306 37.9887C38.6392 37.9887 37.8173 37.8517 36.965 37.5777C36.1431 37.3038 35.3364 36.9081 34.545 36.3906C32.9013 35.3252 32.0794 33.5292 32.0794 31.0027V20.6836C32.0794 19.4052 32.2925 18.3093 32.7186 17.3961C33.1752 16.4829 33.784 15.7676 34.545 15.2501C35.3364 14.7631 36.1431 14.3826 36.965 14.1086C37.7868 13.8347 38.5935 13.6977 39.3849 13.6977H47.0558C47.8168 13.6977 48.6082 13.8651 49.4301 14.1999C50.252 14.5348 51.013 14.9609 51.7131 15.4784C52.4132 16.0568 52.9763 16.8178 53.4025 17.7614C53.8287 18.705 54.0417 19.7704 54.0417 20.9576V40.3173C54.0417 41.5958 53.8287 42.6764 53.4025 43.5592C53.0068 44.4724 52.4436 45.2334 51.7131 45.8422C51.013 46.4205 50.252 46.8619 49.4301 47.1663C48.6387 47.5011 47.8472 47.6686 47.0558 47.6686H39.3849C37.7716 47.6686 36.1431 47.1967 34.4993 46.2531C33.647 45.7661 33.023 45.1421 32.6273 44.3811C32.262 43.6201 32.0794 42.7373 32.0794 41.7328V41.1849C32.0794 40.5761 32.2772 40.089 32.673 39.7238C33.0687 39.3585 33.6927 39.1758 34.545 39.1758C36.2496 39.3585 37.102 40.0282 37.102 41.1849V41.6871C37.102 42.022 37.3303 42.3872 37.7869 42.783C38.2739 43.1787 39.0805 43.3765 40.2068 43.3765H45.9143C47.0406 43.3765 47.832 43.0569 48.2886 42.4177C48.7756 41.7785 49.0192 41.0631 49.0192 40.2717V21.0032C49.0192 20.2422 48.7756 19.5574 48.2886 18.9486C47.832 18.3093 47.0406 17.9897 45.9143 17.9897H40.2068C39.0805 17.9897 38.2739 18.3093 37.7869 18.9486C37.3303 19.5574 37.102 20.2422 37.102 21.0032V30.6375C37.102 31.3985 37.3303 32.1138 37.7869 32.7835C38.2739 33.4227 39.0805 33.7423 40.2068 33.7423H44.9554C46.0513 33.7423 46.5992 34.4424 46.5992 35.8427C46.5992 36.4819 46.4622 36.9994 46.1883 37.3951C45.9447 37.7908 45.5338 37.9887 44.9554 37.9887H39.4306Z" fill="black"/>
<path d="M71.9034 21.3229C71.9034 20.9271 71.8425 20.5466 71.7207 20.1814C71.599 19.7857 71.4468 19.4204 71.2641 19.0855C70.8684 18.355 70.0465 17.9897 68.7985 17.9897H65.8763C64.6283 17.9897 63.7912 18.355 63.365 19.0855C62.9997 19.7857 62.8171 20.5314 62.8171 21.3229V31.2809C62.8171 32.7116 61.98 33.4269 60.3058 33.4269C58.5707 33.4269 57.7032 32.7116 57.7032 31.2809V20.9119C57.7032 18.4159 58.5251 16.5895 60.1688 15.4328C61.843 14.276 63.4715 13.6977 65.0544 13.6977H69.6661C70.3662 13.6977 71.1424 13.8347 71.9947 14.1086C72.847 14.3826 73.6689 14.8087 74.4603 15.3871C75.2213 14.8087 76.0128 14.3826 76.8346 14.1086C77.687 13.8347 78.4936 13.6977 79.2546 13.6977H83.8206C85.4339 13.6977 87.0472 14.276 88.6605 15.4328C90.3347 16.559 91.1718 18.3854 91.1718 20.9119V39.4041C91.1718 40.8348 90.3195 41.5501 88.6149 41.5501C86.9102 41.5501 86.0579 40.8348 86.0579 39.4041V21.3229C86.0579 20.9271 86.0123 20.5314 85.9209 20.1357C85.8296 19.74 85.6622 19.3747 85.4187 19.0399L85.4643 19.0855C85.2208 18.6898 84.9164 18.4159 84.5511 18.2637C84.1859 18.081 83.6532 17.9897 82.9531 17.9897H80.0765C78.798 17.9897 77.9609 18.355 77.5652 19.0855C77.1695 19.7552 76.9716 20.501 76.9716 21.3229V39.4041C76.9716 40.8348 76.1345 41.5501 74.4603 41.5501C72.7557 41.5501 71.9034 40.8348 71.9034 39.4041V21.3229Z" fill="black"/>
<path d="M101.685 41.1849C100.742 41.1849 99.8439 41.0631 98.9915 40.8196C98.1392 40.5456 97.3173 40.1651 96.5259 39.6781V39.7238C95.0344 38.7801 94.2886 37.0451 94.2886 34.5185V32.2812C94.2886 31.0332 94.5017 29.9526 94.9278 29.0394C95.3844 28.0957 96.0084 27.35 96.7999 26.802H96.7542C97.5152 26.2846 98.3219 25.9041 99.1742 25.6605C100.026 25.3866 100.848 25.2496 101.64 25.2496H111.731V21.0032C111.731 20.2422 111.487 19.5574 111 18.9486C110.543 18.3093 109.752 17.9897 108.626 17.9897H103.284C102.127 17.9897 101.32 18.2789 100.864 18.8572C100.437 19.4052 100.224 20.0596 100.224 20.8206V21.1859C100.224 22.7688 99.372 23.5602 97.6674 23.5602C95.9628 23.5602 95.1105 22.7688 95.1105 21.1859V20.7749C95.1105 19.5269 95.3235 18.4767 95.7497 17.6244C96.2063 16.7721 96.8151 16.0568 97.5761 15.4784H97.5304C98.3219 14.9609 99.1437 14.5348 99.9961 14.1999C100.879 13.8651 101.716 13.6977 102.507 13.6977H109.448C110.209 13.6977 111.015 13.8651 111.868 14.1999C112.75 14.5348 113.572 14.9609 114.333 15.4784H114.288C115.079 16.0568 115.688 16.8178 116.114 17.7614C116.54 18.6746 116.753 19.74 116.753 20.9576V32.931C116.753 34.3921 115.916 35.1227 114.242 35.1227C113.907 35.1227 113.587 35.1075 113.283 35.077C113.009 35.0466 112.75 34.9705 112.507 34.8487C112.294 34.6965 112.111 34.4987 111.959 34.2552C111.837 33.9812 111.776 33.6311 111.776 33.205L111.731 29.5416H102.507C101.838 29.5416 101.32 29.6177 100.955 29.7699C100.59 29.9221 100.3 30.1656 100.087 30.5005C99.8439 31.018 99.6612 31.4289 99.5395 31.7333C99.4481 32.0073 99.4025 32.3269 99.4025 32.6922V34.4729C99.4025 35.2643 99.6308 35.8731 100.087 36.2993C100.574 36.695 101.396 36.8929 102.553 36.8929H124.726C125.852 36.8929 126.415 37.6082 126.415 39.0389C126.415 39.6477 126.278 40.1651 126.004 40.5913C125.73 40.987 125.304 41.1849 124.726 41.1849H101.685Z" fill="black"/>
<path d="M9.40958e-08 2.73614C9.40958e-08 1.40446 1.07953 0.324931 2.41121 0.324931H2.62521C3.95688 0.324931 5.03641 1.40446 5.03641 2.73614V39.0986C5.03641 40.4303 3.95688 41.5098 2.62521 41.5098H2.41121C1.07953 41.5098 9.40958e-08 40.4303 9.40958e-08 39.0986V2.73614Z" fill="black"/>
<path d="M22.7857 9.01899e-07C23.9746 9.53867e-07 24.9384 0.963781 24.9384 2.15266C24.9384 3.34154 23.9746 4.30532 22.7857 4.30532L2.15266 4.30532C0.963778 4.30532 -5.19677e-08 3.34154 0 2.15266C5.19677e-08 0.963779 0.963778 -5.19677e-08 2.15266 0L22.7857 9.01899e-07Z" fill="black"/>
<path d="M58.1201 54.5283C57.8752 54.5283 57.7527 54.4059 57.7527 54.161V45.566C57.7527 45.3257 57.8752 45.2056 58.1201 45.2056C58.3604 45.2056 58.4805 45.3257 58.4805 45.566V46.1829C58.6885 45.8594 58.9865 45.6168 59.3747 45.4551C59.7629 45.2888 60.2596 45.2056 60.865 45.2056H61.3917C62.2559 45.2056 62.8866 45.4066 63.284 45.8086C63.686 46.206 63.8871 46.8368 63.8871 47.7009V49.2535C63.8871 50.1176 63.686 50.7507 63.284 51.1527C62.8866 51.5548 62.2559 51.7558 61.3917 51.7558H58.4805V54.161C58.4805 54.4059 58.3604 54.5283 58.1201 54.5283ZM58.4805 51.028H61.3917C62.0525 51.028 62.5123 50.8986 62.7711 50.6398C63.0299 50.3764 63.1593 49.9143 63.1593 49.2535V47.7009C63.1593 47.0401 63.0299 46.5803 62.7711 46.3215C62.5123 46.0628 62.0525 45.9334 61.3917 45.9334H60.865C60.1256 45.9334 59.5572 46.0489 59.1598 46.28C58.767 46.511 58.5406 46.8668 58.4805 47.3474V51.028ZM68.2429 51.7558C67.522 51.7558 66.993 51.5894 66.6556 51.2567C66.3229 50.9194 66.1566 50.3903 66.1566 49.6694C66.1566 48.9485 66.3252 48.4195 66.6626 48.0821C66.9999 47.7448 67.5267 47.5761 68.2429 47.5761H71.3967C71.3875 46.9662 71.2488 46.541 70.9808 46.3007C70.7174 46.0558 70.2669 45.9334 69.6292 45.9334H68.8252C68.2383 45.9334 67.8085 45.9958 67.5359 46.1205C67.2633 46.2453 67.0946 46.4579 67.0299 46.7582C66.9976 46.8737 66.9537 46.9592 66.8982 47.0147C66.8474 47.0655 66.7642 47.0909 66.6487 47.0909C66.5285 47.0909 66.4338 47.0586 66.3645 46.9939C66.2998 46.9246 66.2767 46.8322 66.2952 46.7166C66.3553 46.1898 66.5932 45.8063 67.0091 45.566C67.4296 45.3257 68.035 45.2056 68.8252 45.2056H69.6292C70.4933 45.2056 71.1241 45.4066 71.5215 45.8086C71.9235 46.206 72.1245 46.8368 72.1245 47.7009V51.3884C72.1245 51.6333 72.0044 51.7558 71.7641 51.7558C71.5192 51.7558 71.3967 51.6333 71.3967 51.3884V50.7022C70.9531 51.4046 70.1606 51.7558 69.0192 51.7558H68.2429ZM68.2429 51.028H69.0192C69.4675 51.028 69.8602 50.9795 70.1976 50.8824C70.5395 50.7808 70.8145 50.619 71.0224 50.3972C71.2304 50.1754 71.3551 49.8797 71.3967 49.51V48.3039H68.2429C67.73 48.3039 67.3742 48.4033 67.1755 48.602C66.9814 48.7961 66.8844 49.1519 66.8844 49.6694C66.8844 50.1823 66.9814 50.5382 67.1755 50.7369C67.3742 50.9309 67.73 51.028 68.2429 51.028ZM74.9613 51.7558C74.7164 51.7558 74.5939 51.6333 74.5939 51.3884V45.566C74.5939 45.3257 74.7164 45.2056 74.9613 45.2056C75.2016 45.2056 75.3217 45.3257 75.3217 45.566V46.6335C75.562 46.1714 75.9086 45.8179 76.3615 45.5729C76.8189 45.328 77.3596 45.2056 77.9834 45.2056C78.2283 45.2056 78.3508 45.3257 78.3508 45.566C78.3508 45.8109 78.2283 45.9334 77.9834 45.9334C77.1609 45.9334 76.5232 46.1205 76.0703 46.4948C75.6175 46.8645 75.368 47.3936 75.3217 48.0821V51.3884C75.3217 51.6333 75.2016 51.7558 74.9613 51.7558ZM81.3476 51.7558C80.6268 51.7558 80.0977 51.5894 79.7603 51.2567C79.4276 50.9194 79.2613 50.3903 79.2613 49.6694C79.2613 48.9485 79.4299 48.4195 79.7673 48.0821C80.1046 47.7448 80.6314 47.5761 81.3476 47.5761H84.5014C84.4922 46.9662 84.3536 46.541 84.0856 46.3007C83.8222 46.0558 83.3716 45.9334 82.7339 45.9334H81.9299C81.343 45.9334 80.9133 45.9958 80.6406 46.1205C80.368 46.2453 80.1993 46.4579 80.1346 46.7582C80.1023 46.8737 80.0584 46.9592 80.0029 47.0147C79.9521 47.0655 79.8689 47.0909 79.7534 47.0909C79.6333 47.0909 79.5385 47.0586 79.4692 46.9939C79.4045 46.9246 79.3814 46.8322 79.3999 46.7166C79.46 46.1898 79.698 45.8063 80.1138 45.566C80.5344 45.3257 81.1397 45.2056 81.9299 45.2056H82.7339C83.598 45.2056 84.2288 45.4066 84.6262 45.8086C85.0282 46.206 85.2292 46.8368 85.2292 47.7009V51.3884C85.2292 51.6333 85.1091 51.7558 84.8688 51.7558C84.6239 51.7558 84.5014 51.6333 84.5014 51.3884V50.7022C84.0578 51.4046 83.2653 51.7558 82.124 51.7558H81.3476ZM81.3476 51.028H82.124C82.5722 51.028 82.965 50.9795 83.3023 50.8824C83.6443 50.7808 83.9192 50.619 84.1271 50.3972C84.3351 50.1754 84.4598 49.8797 84.5014 49.51V48.3039H81.3476C80.8347 48.3039 80.4789 48.4033 80.2802 48.602C80.0861 48.7961 79.9891 49.1519 79.9891 49.6694C79.9891 50.1823 80.0861 50.5382 80.2802 50.7369C80.4789 50.9309 80.8347 51.028 81.3476 51.028ZM93.8534 51.7558C93.0032 51.7558 92.3817 51.5594 91.9889 51.1666C91.5961 50.7738 91.3997 50.1546 91.3997 49.309V45.9334H90.5749C90.33 45.9334 90.2075 45.8109 90.2075 45.566C90.2075 45.3257 90.33 45.2056 90.5749 45.2056H91.3997V43.7153C91.3997 43.4704 91.5199 43.348 91.7602 43.348C92.0051 43.348 92.1275 43.4704 92.1275 43.7153V45.2056H93.8673C94.1076 45.2056 94.2277 45.3257 94.2277 45.566C94.2277 45.8109 94.1076 45.9334 93.8673 45.9334H92.1275V49.309C92.1275 49.9559 92.2523 50.4041 92.5018 50.6537C92.756 50.9032 93.2065 51.028 93.8534 51.028C93.9875 51.028 94.0822 51.058 94.1376 51.1181C94.1977 51.1782 94.2277 51.2683 94.2277 51.3884C94.2277 51.6333 94.103 51.7558 93.8534 51.7558ZM97.9064 51.7558C97.0423 51.7558 96.4092 51.5571 96.0072 51.1597C95.6051 50.7577 95.4041 50.1269 95.4041 49.2674V47.7009C95.4041 46.8275 95.6051 46.1922 96.0072 45.7948C96.4092 45.3927 97.0423 45.1963 97.9064 45.2056H99.0431C99.9072 45.2056 100.538 45.4066 100.935 45.8086C101.337 46.206 101.538 46.8368 101.538 47.7009V49.2535C101.538 50.1176 101.337 50.7507 100.935 51.1527C100.538 51.5548 99.9072 51.7558 99.0431 51.7558H97.9064ZM96.1319 49.2674C96.1319 49.9189 96.2613 50.3764 96.5201 50.6398C96.7835 50.8986 97.2456 51.028 97.9064 51.028H99.0431C99.7039 51.028 100.164 50.8986 100.422 50.6398C100.681 50.3764 100.811 49.9143 100.811 49.2535V47.7009C100.811 47.0401 100.681 46.5803 100.422 46.3215C100.164 46.0628 99.7039 45.9334 99.0431 45.9334H97.9064C97.4628 45.9288 97.1116 45.9819 96.8528 46.0928C96.594 46.2037 96.4092 46.3885 96.2983 46.6473C96.1874 46.9061 96.1319 47.2573 96.1319 47.7009V49.2674ZM106.259 51.7558C105.395 51.7558 104.762 51.5548 104.36 51.1527C103.958 50.7507 103.757 50.1176 103.757 49.2535V47.7009C103.757 46.8368 103.958 46.206 104.36 45.8086C104.762 45.4066 105.395 45.2056 106.259 45.2056H109.164V42.5023C109.164 42.262 109.286 42.1419 109.531 42.1419C109.771 42.1419 109.891 42.262 109.891 42.5023V51.3884C109.891 51.6333 109.771 51.7558 109.531 51.7558C109.286 51.7558 109.164 51.6333 109.164 51.3884V50.7923C108.965 51.1112 108.674 51.3514 108.29 51.5132C107.907 51.6749 107.405 51.7558 106.786 51.7558H106.259ZM106.259 51.028H106.786C107.507 51.028 108.082 50.9148 108.512 50.6883C108.946 50.4573 109.164 50.113 109.164 49.6556V45.9334H106.259C105.598 45.9334 105.136 46.0651 104.873 46.3285C104.614 46.5872 104.485 47.0447 104.485 47.7009V49.2535C104.485 49.9143 104.614 50.3764 104.873 50.6398C105.136 50.8986 105.598 51.028 106.259 51.028ZM114.68 51.7558C113.816 51.7558 113.183 51.5571 112.781 51.1597C112.379 50.7577 112.178 50.1269 112.178 49.2674V47.7009C112.178 46.8275 112.379 46.1922 112.781 45.7948C113.183 45.3927 113.816 45.1963 114.68 45.2056H115.817C116.681 45.2056 117.312 45.4066 117.709 45.8086C118.111 46.206 118.312 46.8368 118.312 47.7009V49.2535C118.312 50.1176 118.111 50.7507 117.709 51.1527C117.312 51.5548 116.681 51.7558 115.817 51.7558H114.68ZM112.905 49.2674C112.905 49.9189 113.035 50.3764 113.294 50.6398C113.557 50.8986 114.019 51.028 114.68 51.028H115.817C116.477 51.028 116.937 50.8986 117.196 50.6398C117.455 50.3764 117.584 49.9143 117.584 49.2535V47.7009C117.584 47.0401 117.455 46.5803 117.196 46.3215C116.937 46.0628 116.477 45.9334 115.817 45.9334H114.68C114.236 45.9288 113.885 45.9819 113.626 46.0928C113.368 46.2037 113.183 46.3885 113.072 46.6473C112.961 46.9061 112.905 47.2573 112.905 47.7009V49.2674ZM122.152 51.7419C121.584 51.7419 121.15 51.6218 120.849 51.3815C120.549 51.1366 120.369 50.7646 120.309 50.2655C120.295 50.1454 120.32 50.053 120.385 49.9883C120.45 49.9189 120.544 49.8843 120.669 49.8843C120.785 49.8843 120.87 49.9143 120.926 49.9744C120.986 50.0345 121.025 50.1246 121.043 50.2447C121.085 50.5312 121.189 50.7322 121.355 50.8478C121.526 50.9587 121.792 51.0141 122.152 51.0141H124.426C124.856 51.0141 125.151 50.9332 125.313 50.7715C125.475 50.6098 125.556 50.314 125.556 49.8843C125.556 49.4499 125.475 49.1519 125.313 48.9901C125.151 48.8284 124.856 48.7475 124.426 48.7475H122.18C121.579 48.7475 121.131 48.6043 120.836 48.3178C120.544 48.0267 120.399 47.5807 120.399 46.98C120.399 46.3654 120.544 45.9149 120.836 45.6284C121.127 45.3373 121.575 45.1917 122.18 45.1917H124.357C125.401 45.1917 125.981 45.6538 126.096 46.578C126.115 46.6981 126.09 46.7929 126.02 46.8622C125.956 46.9269 125.863 46.9592 125.743 46.9592C125.627 46.9592 125.54 46.9292 125.48 46.8691C125.424 46.809 125.385 46.7213 125.362 46.6057C125.329 46.347 125.235 46.169 125.078 46.072C124.925 45.9703 124.685 45.9195 124.357 45.9195H122.18C121.778 45.9195 121.501 45.9935 121.348 46.1413C121.201 46.2892 121.127 46.5688 121.127 46.98C121.127 47.3728 121.203 47.6454 121.355 47.7979C121.508 47.9458 121.783 48.0197 122.18 48.0197H124.426C125.064 48.0197 125.533 48.1722 125.833 48.4772C126.133 48.7776 126.284 49.2466 126.284 49.8843C126.284 50.5174 126.133 50.9864 125.833 51.2914C125.533 51.5917 125.064 51.7419 124.426 51.7419H122.152Z" fill="black"/>
<defs>
<linearGradient id="paint0_linear_5_11" x1="17.0182" y1="12.7535" x2="17.0182" y2="41.1849" gradientUnits="userSpaceOnUse">
<stop stop-color="#F24E1E"/>
<stop offset="0.234375" stop-color="#FF7262"/>
<stop offset="0.510417" stop-color="#A259FF"/>
<stop offset="0.755208" stop-color="#1ABCFE"/>
<stop offset="1" stop-color="#0ACF83"/>
</linearGradient>
<linearGradient id="paint1_linear_5_11" x1="25.2227" y1="12.7535" x2="25.2227" y2="41.1849" gradientUnits="userSpaceOnUse">
<stop stop-color="#F24E1E"/>
<stop offset="0.234375" stop-color="#FF7262"/>
<stop offset="0.510417" stop-color="#A259FF"/>
<stop offset="0.755208" stop-color="#1ABCFE"/>
<stop offset="1" stop-color="#0ACF83"/>
</linearGradient>
</defs>
</svg>
